<?xml version="1.0" encoding="UTF-8"?>
<svg id="RED" xmlns="http://www.w3.org/2000/svg" baseProfile="tiny" version="1.2" viewBox="0 0 356.54 113.39">
  <!-- Generator: Adobe Illustrator 29.2.1, SVG Export Plug-In . SVG Version: 2.1.0 Build 116)  -->
  <g id="Logo_BRNO">
    <rect x="92.91" y="28.35" width="1.89" height="56.69" fill="#fff"/>
    <rect x="151.5" y="28.35" width="4.72" height="56.69" fill="#fff"/>
    <rect x="212.92" y="28.35" width="11.34" height="56.69" fill="#fff"/>
    <rect x="280.95" y="28.35" width="18.9" height="56.69" fill="#fff"/>
    <path d="M252.6,50.65c-3.49,0-4.2,3.22-4.2,6.12,0,2.73.71,5.98,4.2,5.98s4.21-3.25,4.21-5.98c0-2.9-.72-6.12-4.21-6.12M243.01,56.7c0-6.11,3.46-9.65,9.59-9.65s9.6,3.54,9.6,9.65-3.47,9.64-9.6,9.64-9.59-3.53-9.59-9.64" fill="#fff"/>
    <polyline points="175.55 47.43 182.73 47.43 188.94 61.22 189 61.18 189 47.43 193.6 47.43 193.6 65.95 186.5 65.95 180.22 51.77 180.17 51.77 180.17 65.95 175.55 65.95 175.55 47.43" fill="#fff"/>
    <path d="M122.23,55.28c1.63,0,3.23-.23,3.23-2.13s-1.59-2.13-3.23-2.13h-2v4.26h2M120.23,65.95h-5.14v-18.52h8.58c3.13,0,7.18.84,7.18,4.78,0,2.77-2.13,4.22-4.72,4.53v.11c3.28.07,3.89,1.74,4.23,4.6.13,1.55.41,3.02.83,4.5h-5.56c-.28-1.28-.43-2.61-.56-3.93-.2-2.23-.31-3.16-2.92-3.16h-1.92v7.09" fill="#fff"/>
    <path d="M64.82,62.37c1.28,0,2.23-.77,2.23-1.92,0-1.03-.72-2.01-1.87-2.09h-3.35v4.01h2.99M61.83,54.79l2.6-.03c1.39,0,2.28-.54,2.28-1.95,0-1.05-.9-1.79-2.1-1.79h-2.78v3.77M56.69,65.95v-18.52h8.87c3.49.03,6.41,1.58,6.41,4.85,0,2.28-1.92,3.66-3.99,4.05v.06c2.46.33,4.46,1.9,4.46,4.54,0,5.39-6.88,5.02-7.05,5.02h-8.69" fill="#fff"/>
  </g>
</svg>